<svg width="14" height="20" viewBox="0 0 14 20" fill="none" xmlns="http://www.w3.org/2000/svg">
<path d="M6.99996 1.66669H4.08329C3.30974 1.66669 2.56788 1.97398 2.0209 2.52096C1.47392 3.06794 1.16663 3.80981 1.16663 4.58335C1.16663 5.3569 1.47392 6.09877 2.0209 6.64575C2.56788 7.19273 3.30974 7.50002 4.08329 7.50002M6.99996 1.66669V7.50002M6.99996 1.66669H9.91663C10.2996 1.66669 10.6789 1.74213 11.0328 1.8887C11.3867 2.03528 11.7082 2.25012 11.979 2.52096C12.2499 2.7918 12.4647 3.11333 12.6113 3.46719C12.7579 3.82106 12.8333 4.20033 12.8333 4.58335C12.8333 4.96638 12.7579 5.34565 12.6113 5.69951C12.4647 6.05338 12.2499 6.37491 11.979 6.64575C11.7082 6.91659 11.3867 7.13143 11.0328 7.278C10.6789 7.42458 10.2996 7.50002 9.91663 7.50002M6.99996 7.50002H4.08329M6.99996 7.50002H9.91663M6.99996 7.50002V13.3334M4.08329 7.50002C3.30974 7.50002 2.56788 7.80731 2.0209 8.35429C1.47392 8.90127 1.16663 9.64314 1.16663 10.4167C1.16663 11.1902 1.47392 11.9321 2.0209 12.4791C2.56788 13.0261 3.30974 13.3334 4.08329 13.3334M9.91663 7.50002C9.5336 7.50002 9.15433 7.57546 8.80047 7.72204C8.4466 7.86861 8.12507 8.08345 7.85423 8.35429C7.58339 8.62513 7.36855 8.94666 7.22198 9.30053C7.0754 9.65439 6.99996 10.0337 6.99996 10.4167C6.99996 10.7997 7.0754 11.179 7.22198 11.5328C7.36855 11.8867 7.58339 12.2082 7.85423 12.4791C8.12507 12.7499 8.4466 12.9648 8.80047 13.1113C9.15433 13.2579 9.5336 13.3334 9.91663 13.3334C10.2996 13.3334 10.6789 13.2579 11.0328 13.1113C11.3867 12.9648 11.7082 12.7499 11.979 12.4791C12.2499 12.2082 12.4647 11.8867 12.6113 11.5328C12.7579 11.179 12.8333 10.7997 12.8333 10.4167C12.8333 10.0337 12.7579 9.65439 12.6113 9.30053C12.4647 8.94666 12.2499 8.62513 11.979 8.35429C11.7082 8.08345 11.3867 7.86861 11.0328 7.72204C10.6789 7.57546 10.2996 7.50002 9.91663 7.50002ZM4.08329 13.3334C3.30974 13.3334 2.56788 13.6406 2.0209 14.1876C1.47392 14.7346 1.16663 15.4765 1.16663 16.25C1.16663 17.0236 1.47392 17.7654 2.0209 18.3124C2.56788 18.8594 3.30974 19.1667 4.08329 19.1667C4.85684 19.1667 5.59871 18.8594 6.14569 18.3124C6.69267 17.7654 6.99996 17.0236 6.99996 16.25V13.3334M4.08329 13.3334H6.99996" stroke="#7F56D9" stroke-width="1.66667" stroke-linecap="round" stroke-linejoin="round"/>
</svg>
